<svg id="Layer_1" data-name="Layer 1" xmlns="http://www.w3.org/2000/svg" viewBox="0 0 100 100"><defs><style>.cls-1{fill:none;}.cls-2{fill:#fff;}</style></defs><title>mts-client-white</title><rect class="cls-1" width="100" height="100"/><path class="cls-2" d="M84.51,47.11l.44-.36-.08.84,1-.84-.14,2s2.47-2,2.47-2M44.15,21.1C44.41,21.42,69.46.6,69.46.6s-25.09,21-25,21L70,.94S45.49,23.71,45.49,23.73,72,2.26,72,2.26c.24.31-25.19,24.13-25,24.35,0,.06,27.78-22.54,27.8-22.52S47.36,27.55,47.56,27.8l28.33-23s-27.81,24-27.79,24c.32.38,28.81-23.35,28.81-23.35.28.34-28.67,23.87-28.35,24.29.16.2,29-24,29.26-23.69s-28.62,25-28.62,25S78.66,6.49,79,6.93,50.78,34.21,50.8,34.21c.28.3,36.37-29.42,36.37-29.42L51.38,35.27S87.6,5.53,87.8,5.77c.36.46-35.39,31.48-35.39,31.48S89,7.66,89,7.66C89.32,8.1,61,35,61,35L90.88,10.74S63,34.07,63.17,34.29L91.34,11.48s-26.29,21.77-26,22.15L91.8,12.22c.08.1-24.06,20.69-24.06,20.69S92.16,12.87,92.3,13,72.63,33.23,72.79,33.45,94,15.83,94.21,16.09c0,0-20.38,18.3-20.38,18.3L95,17.29c.14.18-19.68,18.42-19.68,18.42S96,18.94,96,18.94,76.45,36.77,76.45,36.77L96.81,20.3,77.6,37.82s19.86-16.44,20-16.22-19,17.14-18.86,17.28S98.44,23,98.44,23L79.6,39.66c.12.16,18.84-15.39,18.9-15.31L81.66,41.54c0,.06,13.61-11.28,13.73-11.12L83.15,42.87l10.06-8.16s-9.58,8.4-9.56,8.42,8.92-7.38,9-7.28l-4.45,7.26s1.24-1,1.26-1M83.77.36,84.23,0,83.17,2.61S84.93,1.14,85,1.16L82,6.79s4.27-3.46,4.29-3.46L81.82,7.41c.06.06,4.65-3.76,4.65-3.76"/><path class="cls-2" d="M20,48.9V45.09h3.39v-3c0-3.76,2.16-5.71,6.35-5.71a7.4,7.4,0,0,1,2.2.3v3.81a9.55,9.55,0,0,0-1.14-.08c-2.5,0-2.84.92-2.84,3.23v1.48H42V48.9H27.94V66.65H23.37V48.9Z"/><path class="cls-2" d="M14.93,64.65a7.86,7.86,0,0,1-5.81,2.24c-4.41,0-7.5-2.84-7.5-6.65,0-4.57,2.93-6.05,9-7,2.85-.46,4.41-.73,4.41-2.63,0-1.4-1.28-2.32-3.77-2.32s-4.07,1.1-4.15,3.08H2.65c.56-4.83,3.34-6.89,8.85-6.89,5.94,0,8,2.08,8,6.45V61.7a11,11,0,0,0,.72,5H16a2.29,2.29,0,0,1-1.1-2M6.65,60c0,1.7,1.27,2.85,3.43,2.85,3.69,0,5-1.83,5-5.52,0-.6,0-1.14,0-1.7-4.77,1.56-8.42,1-8.42,4.37"/><path class="cls-2" d="M38.2,48.9V59.58c0,2.28.3,3.23,2.8,3.23a10.27,10.27,0,0,0,1.18-.08v3.94a8.88,8.88,0,0,1-2.36.3c-5.59,0-6.23-2.36-6.23-7.07V37.62H38.2V48.9Z"/><path class="cls-2" d="M55.67,64.65a7.86,7.86,0,0,1-5.81,2.24c-4.41,0-7.49-2.84-7.49-6.65,0-4.57,2.92-6.05,9-7,2.85-.46,4.41-.73,4.41-2.63,0-1.4-1.28-2.32-3.77-2.32s-4.06,1.1-4.14,3.08H43.39c.56-4.83,3.34-6.89,8.85-6.89,5.94,0,8,2.08,8,6.45V61.7a11,11,0,0,0,.72,5H56.77a2.29,2.29,0,0,1-1.1-2M47.4,60c0,1.7,1.26,2.85,3.42,2.85,3.69,0,5-1.83,5-5.52,0-.6,0-1.14,0-1.7C51,57.15,47.4,56.57,47.4,60"/><path class="cls-2" d="M4.53,84.69l-.26-.88H2.06l-.26.88h-1L2.59,79.1H3.73l1.8,5.59ZM3.25,80.36a2.67,2.67,0,0,1-.1-.52,3.73,3.73,0,0,1-.08.5L2.31,83H4Z"/><path class="cls-2" d="M6.15,79.12h.94v3.52c0,.87.37,1.29,1.15,1.29s1.14-.42,1.14-1.29V79.12h.94v3.63a1.84,1.84,0,0,1-2.08,2.08,1.85,1.85,0,0,1-2.11-2.08V79.12Z"/><path class="cls-2" d="M12,83.11a1.76,1.76,0,0,0,1.49.82c.72,0,1.16-.36,1.16-.8,0-.65-.62-.69-1.64-.91s-1.61-.68-1.61-1.54a1.77,1.77,0,0,1,2-1.72,2.47,2.47,0,0,1,2.14,1l-.74.58a1.61,1.61,0,0,0-1.38-.7c-.66,0-1,.3-1,.7,0,.62.58.68,1.5.86,1.2.22,1.76.68,1.76,1.63s-.8,1.82-2.16,1.82a2.61,2.61,0,0,1-2.31-1.1Z"/><polygon class="cls-2" points="16.51 79.12 20.5 79.12 20.5 80.02 19 80.02 19 84.69 18.02 84.69 18.02 80.02 16.51 80.02 16.51 79.12"/><path class="cls-2" d="M21.58,79.12h2c1.36,0,2,.58,2,1.66a1.61,1.61,0,0,1-1.1,1.62l1.32,2.31H24.73l-1.2-2.19h-1v2.19h-1V79.12Zm2,2.56c.68,0,1-.3,1-.88s-.34-.82-1-.82h-1v1.7Z"/><path class="cls-2" d="M29.68,84.69l-.26-.88H27.21l-.26.88H26l1.75-5.59h1.14l1.8,5.59Zm-1.3-4.33a2.67,2.67,0,0,1-.1-.52,3.73,3.73,0,0,1-.08.5L27.44,83h1.68Z"/><polygon class="cls-2" points="31.56 79.12 32.55 79.12 32.55 83.83 34.77 83.83 34.77 84.69 31.56 84.69 31.56 79.12"/><rect class="cls-2" x="35.69" y="79.12" width="0.98" height="5.59"/><path class="cls-2" d="M41.18,84.69l-.26-.88h-2.2l-.26.88h-1l1.74-5.59h1.14l1.8,5.59ZM39.9,80.36a2.67,2.67,0,0,1-.1-.52,3.73,3.73,0,0,1-.08.5L39,83h1.68Z"/><path class="cls-2" d="M43.05,79.12H44l2.14,3.65a3,3,0,0,1,.28.72,4,4,0,0,1-.1-.72V79.12h.94v5.59h-.9l-2.16-3.65a2.35,2.35,0,0,1-.28-.72,3.75,3.75,0,0,1,.1.72v3.65h-.94V79.12Z"/><polygon class="cls-2" points="51.08 79.12 54.63 79.12 54.63 79.98 52.02 79.98 52.02 81.34 54.43 81.34 54.43 82.2 52.02 82.2 52.02 84.69 51.08 84.69 51.08 79.12"/><polygon class="cls-2" points="55.79 79.12 59.5 79.12 59.5 79.96 56.73 79.96 56.73 81.36 59.28 81.36 59.28 82.2 56.73 82.2 56.73 83.83 59.62 83.83 59.62 84.69 55.79 84.69 55.79 79.12"/><path class="cls-2" d="M60.7,79.12h1.89c1.6,0,2.52,1.08,2.52,2.8s-.9,2.79-2.6,2.79H60.7Zm1.79,4.69c1.06,0,1.6-.64,1.6-1.89S63.55,80,62.47,80h-.83v3.83Z"/><polygon class="cls-2" points="66.15 79.12 69.88 79.12 69.88 79.96 67.11 79.96 67.11 81.36 69.66 81.36 69.66 82.2 67.11 82.2 67.11 83.83 69.98 83.83 69.98 84.69 66.15 84.69 66.15 79.12"/><path class="cls-2" d="M71.08,79.12h2c1.36,0,2,.58,2,1.66A1.61,1.61,0,0,1,74,82.4l1.32,2.31H74.23L73,82.52H72v2.19h-1V79.12Zm2,2.56c.68,0,1-.3,1-.88s-.34-.82-1-.82H72v1.7Z"/><path class="cls-2" d="M79.18,84.69l-.26-.88H76.71l-.26.88h-1l1.74-5.59h1.15l1.8,5.59Zm-1.3-4.33a2.67,2.67,0,0,1-.1-.52,3.73,3.73,0,0,1-.08.5L76.93,83h1.69Z"/><polygon class="cls-2" points="80.1 79.12 84.09 79.12 84.09 80.02 82.58 80.02 82.58 84.69 81.6 84.69 81.6 80.02 80.1 80.02 80.1 79.12"/><rect class="cls-2" x="85.15" y="79.12" width="0.98" height="5.59"/><path class="cls-2" d="M89.68,84.83c-1.48,0-2.51-1.14-2.51-2.93S88.2,79,89.68,79s2.5,1.14,2.5,2.92-1,2.93-2.5,2.93m1.5-2.93c0-1.28-.58-2-1.5-2s-1.5.74-1.5,2,.6,2,1.5,2,1.5-.74,1.5-2"/><path class="cls-2" d="M93.23,79.12h.92l2.16,3.65a3,3,0,0,1,.28.72,4,4,0,0,1-.1-.72V79.12h.94v5.59h-.9l-2.16-3.65a2.35,2.35,0,0,1-.28-.72,3.75,3.75,0,0,1,.1.72v3.65h-.94V79.12Z"/><path class="cls-2" d="M16.35,93c-1.48,0-2.5-1.15-2.5-2.93s1-2.93,2.5-2.93,2.51,1.15,2.51,2.93S17.84,93,16.35,93M17.86,90c0-1.28-.59-2-1.51-2s-1.5.74-1.5,2,.6,2,1.5,2,1.51-.72,1.51-2"/><polygon class="cls-2" points="19.9 87.25 23.45 87.25 23.45 88.14 20.86 88.14 20.86 89.48 23.27 89.48 23.27 90.34 20.86 90.34 20.86 92.83 19.9 92.83 19.9 87.25"/><polygon class="cls-2" points="26.83 87.25 30.82 87.25 30.82 88.16 29.32 88.16 29.32 92.83 28.34 92.83 28.34 88.16 26.83 88.16 26.83 87.25"/><path class="cls-2" d="M31.88,87.25h2c1.36,0,2,.59,2,1.67a1.61,1.61,0,0,1-1.1,1.62l1.32,2.31H35.05l-1.2-2.19h-1v2.19h-1Zm2,2.57c.68,0,1-.3,1-.88s-.34-.82-1-.82H32.85v1.7Z"/><path class="cls-2" d="M40,92.83l-.26-.89h-2.2l-.27.89h-1L38,87.23h1.14l1.8,5.6ZM38.7,88.5a2.67,2.67,0,0,1-.1-.52,3.73,3.73,0,0,1-.08.5l-.76,2.6h1.68Z"/><path class="cls-2" d="M41.24,87.25h1l1.11,4.07c0,.16.1.34.14.58.06-.28.1-.46.14-.58l1.1-4.07h1l-1.62,5.6h-1.2Z"/><polygon class="cls-2" points="46.61 87.25 50.34 87.25 50.34 88.12 47.58 88.12 47.58 89.5 50.12 89.5 50.12 90.34 47.58 90.34 47.58 91.96 50.44 91.96 50.44 92.83 46.61 92.83 46.61 87.25"/><polygon class="cls-2" points="51.58 87.25 52.55 87.25 52.55 91.96 54.79 91.96 54.79 92.83 51.58 92.83 51.58 87.25"/><path class="cls-2" d="M61.36,92.83,61.1,92H58.9l-.26.89h-1l1.74-5.6h1.14l1.8,5.6h-1ZM60.08,88.5A2.67,2.67,0,0,1,60,88a3.73,3.73,0,0,1-.08.5l-.76,2.6h1.68Z"/><path class="cls-2" d="M67.62,92.83h-.89v-.41a1.93,1.93,0,0,1-1.44.57c-1.48,0-2.5-1.15-2.5-2.89s1-3,2.56-3a2.24,2.24,0,0,1,2.25,1.61l-.85.38A1.49,1.49,0,0,0,65.35,88c-.9,0-1.56.8-1.56,2s.66,2,1.58,2a1.28,1.28,0,0,0,1.34-1.36v0H65.43v-.88h2.19Z"/><polygon class="cls-2" points="68.84 87.25 72.55 87.25 72.55 88.12 69.78 88.12 69.78 89.5 72.33 89.5 72.33 90.34 69.78 90.34 69.78 91.96 72.67 91.96 72.67 92.83 68.84 92.83 68.84 87.25"/><path class="cls-2" d="M73.75,87.25h.92l2.14,3.65a3,3,0,0,1,.28.72,4,4,0,0,1-.1-.72V87.25h1v5.6H77L74.87,89.2a2.35,2.35,0,0,1-.28-.72,3.75,3.75,0,0,1,.1.72v3.65h-.94v-5.6Z"/><polygon class="cls-2" points="79.02 87.25 82.99 87.25 82.99 88.16 81.48 88.16 81.48 92.83 80.52 92.83 80.52 88.16 79.02 88.16 79.02 87.25"/><path class="cls-2" d="M84.49,91.24a1.73,1.73,0,0,0,1.48.82c.72,0,1.16-.36,1.16-.8,0-.64-.62-.68-1.64-.9s-1.6-.68-1.6-1.54a1.77,1.77,0,0,1,2-1.73,2.47,2.47,0,0,1,2.15,1l-.75.58a1.61,1.61,0,0,0-1.38-.7c-.66,0-1,.3-1,.7,0,.62.58.68,1.5.86,1.21.22,1.77.68,1.77,1.62S87.33,93,86,93a2.6,2.6,0,0,1-2.3-1.11Z"/><rect class="cls-2" x="1.72" y="71.78" width="97.13" height="3.23"/><rect class="cls-2" x="1.72" y="96.97" width="97.13" height="3.23"/></svg>