<svg id="Layer_1" data-name="Layer 1" xmlns="http://www.w3.org/2000/svg" viewBox="0 0 300 300"><defs><style>.cls-1{fill:#fff;}</style></defs><title>mts</title><path class="cls-1" d="M189.11,100.88a11.69,11.69,0,0,0,11.71-11.7V77a11.71,11.71,0,1,0-23.42,0V89.19A11.68,11.68,0,0,0,189.11,100.88Z"/><path class="cls-1" d="M230.73,85.49H207.14v6a17.83,17.83,0,1,1-35.66,0v-6H123.89v6a17.84,17.84,0,0,1-35.68,0v-6L64.42,85.2V234.13H219l11.89,0ZM219,222.27H76.32V127.13H219v95.14Z"/><path class="cls-1" d="M105.86,100.88a11.7,11.7,0,0,0,11.73-11.7V77a11.72,11.72,0,1,0-23.43,0V89.19A11.67,11.67,0,0,0,105.86,100.88Z"/></svg>