<svg id="Layer_1" data-name="Layer 1" xmlns="http://www.w3.org/2000/svg" viewBox="0 0 300 300"><defs><style>.cls-1{fill:#646464;}</style></defs><title>mts</title><path class="cls-1" d="M229.42,197.64a7.81,7.81,0,0,1-2.4,6.84l-22.75,22.59a12.87,12.87,0,0,1-4,2.91,16.54,16.54,0,0,1-4.87,1.54l-1,.08a22,22,0,0,1-2.22.09,79.13,79.13,0,0,1-10.53-1.11,80.5,80.5,0,0,1-17.79-5.48A149.2,149.2,0,0,1,139.93,212q-13.35-8.73-28.4-23.95a187,187,0,0,1-19.85-22.59A160.53,160.53,0,0,1,79,145.54a107.55,107.55,0,0,1-7.19-16.6,87.61,87.61,0,0,1-3.25-12.83,42,42,0,0,1-.68-8.47c.11-2.06.17-3.2.17-3.42a16.6,16.6,0,0,1,1.54-4.88,12.94,12.94,0,0,1,2.91-4L95.27,72.56a7.52,7.52,0,0,1,5.48-2.39,6.34,6.34,0,0,1,3.93,1.28,11.94,11.94,0,0,1,2.91,3.17l18.31,34.73a8.34,8.34,0,0,1,.86,6,10.68,10.68,0,0,1-2.91,5.47l-8.39,8.39a3,3,0,0,0-.6,1.11,4.19,4.19,0,0,0-.25,1.28,30.56,30.56,0,0,0,3.08,8.22,76.48,76.48,0,0,0,6.33,10,111.7,111.7,0,0,0,12.15,13.6,113.07,113.07,0,0,0,13.68,12.23,79.66,79.66,0,0,0,10,6.42,27.08,27.08,0,0,0,6.16,2.48l2.14.43a4.1,4.1,0,0,0,1.11-.26,2.82,2.82,0,0,0,1.12-.6l9.75-9.92a10.46,10.46,0,0,1,7.19-2.74,8.89,8.89,0,0,1,4.62,1h.17l33,19.5A8.63,8.63,0,0,1,229.42,197.64Z"/></svg>