<svg id="Layer_1" data-name="Layer 1" xmlns="http://www.w3.org/2000/svg" viewBox="0 0 100 100"><defs><style>.cls-1{fill:#fff;}.cls-2{fill:none;}</style></defs><title>mts-category-white</title><g id="mts_railway-white" data-name="mts railway-white"><path id="mts_railway-white-2" data-name="mts railway-white-2" class="cls-1" d="M50.37,0C29.3,0,8.25,2.63,8.25,21.06v50A18.44,18.44,0,0,0,26.67,89.49l-7.9,7.9V100H30.52L41,89.47H60.89L71.42,100H82V97.37l-7.9-7.88A18.45,18.45,0,0,0,92.48,71.06v-50C92.47,2.63,73.63,0,50.37,0ZM26.67,79a7.9,7.9,0,1,1,7.9-7.9h0A7.89,7.89,0,0,1,26.69,79ZM45.1,42.11H18.77v-21H45.1Zm10.53,0v-21H82V42.13ZM74.05,79a7.9,7.9,0,1,1,7.9-7.9h0A7.89,7.89,0,0,1,74.07,79Z"/></g><rect class="cls-2" width="100" height="100"/></svg>