<svg id="Layer_1" data-name="Layer 1" xmlns="http://www.w3.org/2000/svg" viewBox="0 0 100 100"><defs><style>.cls-1{fill:none;}.cls-2{fill:#fff;}</style></defs><title>mts-client-white</title><rect class="cls-1" width="100" height="100"/><path class="cls-2" d="M9.18,52.91H20.59l2.07,5.88h7.1L18,29.19H11.8L0,58.79H7.09Zm5.7-16.27,4,11.46h-8Z"/><polygon class="cls-2" points="33.48 48.11 39.99 48.11 39.99 24.79 49.24 24.79 49.24 19.03 24.24 19.03 24.24 24.79 33.48 24.79 33.48 48.11"/><path class="cls-2" d="M51,58.79l2.09-5.88H64.5l2.1,5.88h7.09L61.88,29.19H55.72l-11.8,29.6ZM58.8,36.64l4,11.46h-8Z"/><path class="cls-2" d="M87.84,46.37c4.19.36,5.7,1.11,5.7,3.44s-1.69,3.61-6.46,3.61A29.65,29.65,0,0,1,77,51.67v5.87c2,.93,7.16,1.69,10.06,1.69,9.6,0,13-4.19,13-9.42,0-6.17-2.62-8-11.34-8.78-4.19-.35-5.82-.82-5.82-3,0-2.44,1.51-3.48,5.82-3.5a29.3,29.3,0,0,1,10,1.69V30.38c-2.49-1.1-7-1.63-9.93-1.63-8.6,0-12.21,3.55-12.21,9.31S79.12,45.62,87.84,46.37Z"/><path class="cls-2" d="M44.22,76.19a2.87,2.87,0,0,0,.19,5.73,3.15,3.15,0,0,0,1.86-.53l0,0v-.94l-.14.1a2.63,2.63,0,0,1-1.76.58,1.87,1.87,0,0,1-1.89-1.93h4V78.6A2.18,2.18,0,0,0,44.22,76.19ZM42.8,78.4A1.63,1.63,0,0,1,44.4,77a1.31,1.31,0,0,1,1.44,1.39Z"/><path class="cls-2" d="M26.68,81.12c-.48,0-.68-.25-.68-.86V77.11h1.49v-.79H26V75h-.91v1.28h-.82v.79h.82v3.22c0,1,.5,1.59,1.42,1.59a2.5,2.5,0,0,0,1.18-.28l0,0v-.84l-.12.07A2.08,2.08,0,0,1,26.68,81.12Z"/><path class="cls-2" d="M30.66,76.23a3.76,3.76,0,0,0-2,.58l0,0v5h.91V77.33a2.4,2.4,0,0,1,1.11-.24,2.9,2.9,0,0,1,.9.12l.11,0v-.9l-.06,0A5.07,5.07,0,0,0,30.66,76.23Z"/><path class="cls-2" d="M34.07,76.19a3.61,3.61,0,0,0-1.68.43l0,0v.89l.12-.06A3.1,3.1,0,0,1,34,77.06c.67,0,1,.34,1,1v.55H34.5c-1.72,0-2.67.59-2.67,1.67s.86,1.66,2.48,1.66a5.89,5.89,0,0,0,1.53-.2h.07V78A1.6,1.6,0,0,0,34.07,76.19Zm1,4.86a4,4,0,0,1-.66.06c-.74,0-1.62-.15-1.62-.88s1.13-.92,1.81-.92H35Z"/><polygon class="cls-2" points="39.01 80.78 37.34 76.32 36.38 76.32 38.51 81.74 38.54 81.79 39.45 81.79 41.6 76.31 40.67 76.31 39.01 80.78"/><path class="cls-2" d="M86.74,81.12c-.47,0-.68-.25-.68-.86V77.11h1.5v-.79h-1.5V75h-.9v1.28h-.82v.79h.82v3.22c0,1,.5,1.59,1.42,1.59a2.5,2.5,0,0,0,1.18-.28l0,0v-.84l-.12.07A2.08,2.08,0,0,1,86.74,81.12Z"/><path class="cls-2" d="M80.46,76.38a3.31,3.31,0,0,0-1.07-.19,2.81,2.81,0,0,0-3,2.86c0,1.76,1.21,2.87,3.17,2.87a7.83,7.83,0,0,0,1.75-.2l.06,0v-8h-.9Zm-.92,4.72a2,2,0,0,1-2.25-2,1.92,1.92,0,0,1,2.08-2,2.39,2.39,0,0,1,1.07.22v3.81h0A6.12,6.12,0,0,1,79.54,81.1Z"/><rect class="cls-2" x="47.53" y="73.65" width="0.91" height="8.14"/><rect class="cls-2" x="82.68" y="76.32" width="0.91" height="5.47"/><path class="cls-2" d="M97.85,76.38a3.21,3.21,0,0,0-1.07-.19,2.82,2.82,0,0,0-3,2.86c0,1.76,1.21,2.87,3.17,2.87a7.76,7.76,0,0,0,1.75-.2l.06,0v-8h-.9Zm-.91,4.72a2,2,0,0,1-2.25-2,1.93,1.93,0,0,1,2.09-2,2.42,2.42,0,0,1,1.07.22v3.81h0A5.9,5.9,0,0,1,96.94,81.1Z"/><path class="cls-2" d="M90.73,76.19a2.87,2.87,0,0,0,.19,5.73,3.15,3.15,0,0,0,1.86-.53l0,0v-.94l-.14.1a2.65,2.65,0,0,1-1.76.58A1.87,1.87,0,0,1,89,79.17h4V78.6A2.17,2.17,0,0,0,90.73,76.19ZM89.1,78.4A1.63,1.63,0,0,1,90.69,77a1.32,1.32,0,0,1,1.45,1.39Z"/><path class="cls-2" d="M83.12,74.32a.63.63,0,1,0,.63.63A.62.62,0,0,0,83.12,74.32Z"/><path class="cls-2" d="M54.66,76.19a3.69,3.69,0,0,0-1.69.43l0,0v.89l.13-.06a3.07,3.07,0,0,1,1.52-.42c.67,0,1,.34,1,1v.55h-.51c-1.73,0-2.67.59-2.67,1.67s.86,1.66,2.48,1.66a5.89,5.89,0,0,0,1.53-.2h.07V78A1.6,1.6,0,0,0,54.66,76.19Zm.94,4.86a3.74,3.74,0,0,1-.65.06c-.74,0-1.62-.15-1.62-.88s1.13-.92,1.81-.92h.46Z"/><path class="cls-2" d="M60.19,81.07a1.91,1.91,0,0,1-2-2,1.87,1.87,0,0,1,2-2,2.5,2.5,0,0,1,1.44.49l.14.1v-1l0,0a3,3,0,0,0-1.56-.41,2.86,2.86,0,0,0,0,5.72,3.38,3.38,0,0,0,1.63-.42l0,0v-1l-.13.09A2.71,2.71,0,0,1,60.19,81.07Z"/><path class="cls-2" d="M70.73,76.35l-.06,0a5.16,5.16,0,0,0-.92-.1,3.76,3.76,0,0,0-2,.58l0,0v5h.91V77.33a2.39,2.39,0,0,1,1.1-.24,3,3,0,0,1,.91.12l.11,0Z"/><path class="cls-2" d="M65.16,81.07a1.91,1.91,0,0,1-2-2,1.87,1.87,0,0,1,2-2,2.52,2.52,0,0,1,1.44.49l.13.1v-1l-.05,0a3,3,0,0,0-1.56-.41,2.86,2.86,0,0,0,0,5.72,3.39,3.39,0,0,0,1.64-.42l.05,0v-1l-.14.09A2.63,2.63,0,0,1,65.16,81.07Z"/><path class="cls-2" d="M73.34,76.19a2.87,2.87,0,0,0,.19,5.73,3.19,3.19,0,0,0,1.86-.53l0,0v-.94l-.13.1a2.63,2.63,0,0,1-1.76.58,1.87,1.87,0,0,1-1.89-1.93h4V78.6A2.18,2.18,0,0,0,73.34,76.19ZM71.7,78.4A1.64,1.64,0,0,1,73.3,77a1.33,1.33,0,0,1,1.45,1.39Z"/><polygon class="cls-2" points="36.74 59.54 32.54 63.74 0.35 63.74 0.35 68.69 33.81 68.69 34.17 68.69 36.74 66.13 39.3 68.69 39.67 68.69 98.75 68.69 98.75 63.74 40.94 63.74 36.74 59.54"/></svg>