<svg id="Layer_1" data-name="Layer 1" xmlns="http://www.w3.org/2000/svg" viewBox="0 0 100 100"><defs><style>.cls-1{fill:#777;}.cls-2{fill:none;}</style></defs><title>mts-category-grey</title><path id="Path_126" data-name="Path 126" class="cls-1" d="M86.34,90.91a32,32,0,0,1-18.19-6,31.27,31.27,0,0,1-36.36,0,32,32,0,0,1-18.18,6H4.52V100h9.09A40,40,0,0,0,31.8,95.5a39.8,39.8,0,0,0,36.36,0A39.44,39.44,0,0,0,86.34,100h9.09V90.91ZM13.39,81.82h.22A24.78,24.78,0,0,0,31.8,72.73,24.78,24.78,0,0,0,50,81.82a24.78,24.78,0,0,0,18.18-9.09,24.78,24.78,0,0,0,18.19,9.09h.22l8.6-30.37a4.8,4.8,0,0,0-.27-3.53,4.58,4.58,0,0,0-2.73-2.28l-5.82-1.9v-21a9.13,9.13,0,0,0-9.1-9.1H63.61V0H36.34V13.64H22.7a9.12,9.12,0,0,0-9.09,9.09v21L7.75,45.63a4.55,4.55,0,0,0-3,5.81ZM22.7,22.73H77.25v18L50,31.82l-27.28,9Z"/><rect class="cls-2" width="100" height="100"/></svg>