<svg id="Layer_1" data-name="Layer 1" xmlns="http://www.w3.org/2000/svg" viewBox="0 0 100 100"><defs><style>.cls-1{fill:none;}.cls-2{fill:#fff;}</style></defs><title>mts-category-white</title><rect class="cls-1" width="100" height="100"/><path id="mts_marker-white" data-name="mts marker-white" class="cls-2" d="M49.06,0A36.25,36.25,0,0,0,12.85,36.22c0,24.78,32.41,61.17,33.79,62.7a3.26,3.26,0,0,0,4.61.24,1.81,1.81,0,0,0,.24-.24C52.87,97.38,85.3,61,85.3,36.22A36.27,36.27,0,0,0,49.06,0Zm0,54.44A18.23,18.23,0,1,1,67.29,36.21,18.23,18.23,0,0,1,49.06,54.44Z"/></svg>