<svg id="Layer_1" data-name="Layer 1" xmlns="http://www.w3.org/2000/svg" viewBox="0 0 100 100"><defs><style>.cls-1{fill:none;}.cls-2{fill:#777;}</style></defs><title>mts-category-grey</title><rect class="cls-1" width="100" height="100"/><g id="mts_phone-white" data-name="mts phone-white"><path id="mts_phone-white-2" data-name="mts phone-white-2" class="cls-2" d="M.13,78.87A4.82,4.82,0,0,0,1.61,83.1l14.06,14a7.82,7.82,0,0,0,2.47,1.8,10.32,10.32,0,0,0,3,1l.62,0c.45,0,.91.06,1.37.06a49,49,0,0,0,6.5-.72,49.69,49.69,0,0,0,11-3.39,91.48,91.48,0,0,0,14.79-8.1A108.93,108.93,0,0,0,73,72.91,114.69,114.69,0,0,0,85.27,59a101.38,101.38,0,0,0,7.85-12.31,67.05,67.05,0,0,0,4.44-10.26,54.18,54.18,0,0,0,2-7.93,25.57,25.57,0,0,0,.42-5.24c-.07-1.27-.1-2-.1-2.14a10.32,10.32,0,0,0-1-3,8.14,8.14,0,0,0-1.8-2.47l-14.08-14A4.68,4.68,0,0,0,79.67.08a4,4,0,0,0-2.43.8,7.27,7.27,0,0,0-1.79,2L64.13,24.3A5.17,5.17,0,0,0,63.59,28a6.71,6.71,0,0,0,1.8,3.39l5.19,5.18a2,2,0,0,1,.37.72,2.64,2.64,0,0,1,.16.79,18.78,18.78,0,0,1-1.91,5.08,47.31,47.31,0,0,1-3.91,6.18,69.64,69.64,0,0,1-7.51,8.41,68.83,68.83,0,0,1-8.45,7.55,49.54,49.54,0,0,1-6.18,4,16.81,16.81,0,0,1-3.81,1.54L38,71.08a2.89,2.89,0,0,1-.72-.16,1.82,1.82,0,0,1-.71-.38l-6-6.13a6.5,6.5,0,0,0-4.45-1.69,5.53,5.53,0,0,0-2.85.62h-.11L2.76,75.4A5.32,5.32,0,0,0,.13,78.87Z"/></g></svg>