<svg id="Layer_1" data-name="Layer 1" xmlns="http://www.w3.org/2000/svg" viewBox="0 0 100 100"><defs><style>.cls-1{fill:none;}</style></defs><title>mts-category-white</title><path id="Path_512" data-name="Path 512" class="cls-1" d="M88.09,10.56A8.22,8.22,0,0,0,80.27,5H19.68a8.28,8.28,0,0,0-7.82,5.56L.41,43.55V87.62a5.52,5.52,0,0,0,5.5,5.51h5.51a5.53,5.53,0,0,0,5.51-5.51V82.11H83v5.51a5.53,5.53,0,0,0,5.51,5.51H94a5.53,5.53,0,0,0,5.51-5.51V43.55Zm-68.41,55A8.27,8.27,0,1,1,28,57.32a8.26,8.26,0,0,1-8.27,8.27Zm60.59,0a8.27,8.27,0,1,1,8.26-8.27,8.26,8.26,0,0,1-8.26,8.27ZM11.42,38l8.26-24.77H80.27L88.53,38Z"/><rect class="cls-1" width="100" height="100"/></svg>